<?xml version="1.0" encoding="UTF-8"?>
<svg id="Layer_1" data-name="Layer 1" xmlns="http://www.w3.org/2000/svg" viewBox="0 0 1105.13 186.25">
  <defs>
    <style>
      .cls-1 {
        fill: #fcfcfc;
      }

      .cls-2 {
        fill: #7325fa;
      }

      .cls-3 {
        fill: #fbfbfb;
      }

      .cls-4 {
        fill: #7022f6;
      }

      .cls-5 {
        fill: #fafafa;
      }
    </style>
  </defs>
  <path class="cls-5" d="M399.06,125.84c.06-7.33.13-14.16.19-20.99.2-22.58,18.08-48.51,49.18-47.62,23.95.68,47.94.14,72.47.14V.73c7.59,0,14.67-.13,21.73.18.83.04,2.21,2.51,2.23,3.87.17,12.82.11,25.65.1,38.48,0,45.47-.02,90.95-.03,136.42,0,1.95,0,3.9,0,6.34-2.47,0-4.27,0-6.07,0-30.65.02-61.3.02-91.95.05-26.35.03-46.22-18.82-47.6-45.25-.25-4.82-.18-9.66-.26-14.99M505.69,83.12c-19.32.01-38.65.02-57.97.04-14.72.01-23.91,8.47-24.43,23.12-.38,10.65-.35,21.33.04,31.97.5,13.44,9.5,21.78,22.91,21.8,23.49.03,46.97.01,70.46,0,1.42,0,2.83-.2,4.15-.3v-76.62c-4.92,0-9.54,0-15.17,0Z"/>
  <path class="cls-5" d="M247.67,132.29c5.4-17.69,18.42-27.31,36.5-27.32,15.66,0,31.33-.03,46.99-.03,7.47,0,10.41,2.64,10.62,10.06.42,14.83.49,16.06-14.51,15.8-14.33-.24-28.66-.07-42.99-.04-9.26.02-14.73,5.08-14.91,13.71-.19,9.35,5.65,15.5,15.02,15.53,24,.07,47.99.04,71.99.05,1.13,0,2.25,0,3.91,0,0-9.71,0-18.99,0-28.28,0-8.33.08-16.67-.03-25-.2-14.42-9.54-23.64-23.88-23.64-16.5,0-33,.02-49.49.06-11.02.03-11.35-.27-11.3-11.09.01-2.83-.03-5.67.09-8.5.16-3.96,2.17-6.19,6.28-6.18,20.33.05,40.68-.46,60.98.32,19.93.76,36.56,17.41,40.23,38.92.72,4.24,1.03,8.6,1.05,12.91.09,23.83-.06,47.66.11,71.49.03,4.03-1.18,5.04-5.11,5.02-30.5-.14-61.01-.68-91.48.12-28.01.74-45.85-21.31-41.09-49.15.25-1.48.61-2.94,1.03-4.79Z"/>
  <path class="cls-3" d="M749.2,57.45c26.83-.05,53.15-.09,79.48-.15,8.73-.02,11.04,2.45,11.56,11.22.48,8.09-2.04,14.07-8.53,19.48-27.38,22.81-54.35,46.13-81.46,69.26-.71.61-1.39,1.25-2.76,2.48,2.41.12,3.98.26,5.55.26,32.32.03,64.65.04,96.97.06,6.4,0,7.18,1.04,4.1,6.8-2.26,4.23-5.02,8.25-7.95,12.06-3.89,5.05-9.16,7.21-15.69,7.19-39.99-.11-79.98-.03-119.97-.02-6.03,0-7.9-1.94-8.39-7.95-.68-8.28,2.15-14.49,8.68-20,29-24.46,57.66-49.31,87.66-75.07-3.22,0-5.21,0-7.21,0-27.16.03-54.32.08-81.48.09-6.67,0-6.79-.15-6.8-6.62,0-6.14,0-12.28,0-19.1,15.54,0,30.64,0,46.25,0Z"/>
  <path class="cls-2" d="M983.06,8.99c4.94,9.6,9.91,18.81,14.32,28.29,20.51,44.07,40.81,88.23,61.37,132.27,1.86,3.99,5.18,7.29,7.68,11,.78,1.15,1.09,2.62,1.62,3.94-1.44.56-2.86,1.56-4.31,1.59-5.99.13-12,.04-17.99-.11-6.22-.15-10.07-3.59-12.53-9.1-7.61-17.01-15.25-34.02-22.99-50.97-14.51-31.79-29.09-63.54-43.67-95.29-.72-1.57-1.71-3.01-3.09-5.39-1.46,2.39-2.52,3.81-3.26,5.37-13.08,27.87-26.16,55.74-39.17,83.64-9.57,20.52-19.06,41.07-28.54,61.64-3.12,6.77-8.27,10.19-15.74,10.15-5.83-.03-11.66.02-17.49-.03-3.27-.03-4.79-1.54-2.18-4.19,11.94-12.16,16.75-28.27,23.88-43.03,19.63-40.63,38.73-81.52,58.16-122.24,8.87-18.59,28.96-22.09,43.92-7.55Z"/>
  <path class="cls-5" d="M689.09,81.84c0,17.83.18,35.16-.05,52.49-.18,14.27-4.31,27.2-14.34,37.84-8.73,9.27-19.63,13.57-32.14,13.81-11.99.23-23.99.08-35.99.06-26.12-.05-46.32-18.69-47.34-44.96-.87-22.3-.44-44.64-.57-66.97-.03-5.32,0-10.63,0-16.37h23.84c0,1.63,0,3.38,0,5.14,0,23-.13,45.99.08,68.98.04,4.75.75,9.69,2.21,14.2,2.88,8.87,9.72,13.55,18.82,13.85,13.15.43,26.33.33,39.49.02,11.5-.27,20.81-9.35,21.81-21.44.67-8.11.37-16.31.39-24.47.04-18.65.01-37.29.01-56.31h23.77c0,8.03,0,15.84,0,24.14Z"/>
  <path class="cls-1" d="M20.26,25.65c-3.29-1.75-7.12-2.91-9.74-5.37C5.26,15.35,1.96,9.03,0,1.27h166.92c.1,8.56-10.1,21.73-19.57,24.28-1.08-.06-1.63.15-2.18.36-14.12.13-28.23.27-42.35.4-2.13.02-4.25,0-6.66,0,0,52.22,0,103.92-.46,156.01-4.89.44-9.32.5-13.75.51q-6.73.01-6.75-6.57c0-24.65,0-49.3,0-73.95,0-23.15.02-46.3-.04-69.45,0-2.05,1.17-5.08-2.82-5.02-1.76-.52-3.51-1.48-5.27-1.49-14.65-.15-29.31-.12-44.54-.53-1.14-.31-1.71-.24-2.28-.17Z"/>
  <path class="cls-3" d="M180.71,84.87c-10.16,5.02-13.05,13.7-13.09,23.77-.09,22.33-.05,44.65-.06,66.98,0,3.31,0,6.62,0,10.41-7.33,0-14.14.15-20.93-.16-1.02-.05-2.71-2.23-2.77-3.48-.27-6.32-.1-12.66-.1-18.99,0-18.66-.08-37.32-.02-55.98.05-13.62,4.1-25.83,13.23-36.17,6.45-7.3,14.67-12.67,24.06-12.96,25.75-.8,51.53-.28,77.3-.28-.14,12.63-12.5,25.11-24.99,25.13-14.16.02-28.33-.06-42.49.12-3.26.04-6.52.96-10.16,1.6Z"/>
  <path class="cls-4" d="M1096.77,186.14c-4.61,0-8.79-.26-12.92.04-4.23.31-5.46-1.36-5.44-5.46.15-22.96.06-45.92.07-68.88,0-15.97.22-31.95-.06-47.92-.08-4.74,1.55-6.11,5.98-5.83,4.64.29,9.32.22,13.97-.01,3.03-.15,4.04.79,4.04,3.92-.06,39.76-.06,79.53.12,119.29.02,4.23-1.61,5.34-5.75,4.85Z"/>
  <path class="cls-4" d="M1076.5,17.07c.84-6.59,3.43-11.58,9.62-13.84,7.6-2.77,15.93,1.85,18.37,10.04,2.47,8.28-2.54,17.41-10.8,19.69-7.33,2.02-14.85-2.87-16.8-11.02-.34-1.44-.28-2.97-.4-4.87Z"/>
  <path class="cls-5" d="M72.23,28.3c4.11-.51,2.93,2.52,2.94,4.57.06,23.15.04,46.3.04,69.45,0,24.65,0,49.3,0,73.95q0,6.56,6.75,6.57c4.43,0,8.86-.07,13.65-.05.42.51.49.96.17,1.76-.78.67-1.17.98-1.57,1.29-6.36.07-12.73.14-19.75-.17-1.07-.51-1.47-.65-1.88-.79-.15-1.63-.44-3.25-.44-4.88-.02-50.41-.02-100.83.1-151.7Z"/>
  <path class="cls-5" d="M145.36,26.03c.37-.33.92-.54,1.63-.54-.38.36-.91.51-1.63.54Z"/>
  <path class="cls-5" d="M20.42,25.8c.41-.22.98-.29,1.67-.13-.42.25-.97.26-1.67.13Z"/>
  <path class="cls-1" d="M94.51,185.93c.09-.4.48-.71,1.14-1.05-.1.36-.47.75-1.14,1.05Z"/>
  <path class="cls-1" d="M72.71,185.21c.27-.2.68-.06,1.29.34-.25.17-.7.08-1.29-.34Z"/>
</svg>