<?xml version="1.0" encoding="UTF-8"?>
<svg id="Layer_1" xmlns="http://www.w3.org/2000/svg" version="1.1" viewBox="0 0 1920 1254">
  <!-- Generator: Adobe Illustrator 30.3.0, SVG Export Plug-In . SVG Version: 2.1.3 Build 182)  -->
  <defs>
    <style>
      .st0 {
        fill: #f8f7f8;
      }

      .st1 {
        fill: #e9e9e9;
      }

      .st2 {
        fill: #6b18f9;
      }

      .st3 {
        fill: #fbfbfb;
      }

      .st4 {
        fill: #6a14fa;
      }

      .st5 {
        fill: #efefef;
      }

      .st6 {
        fill: #f8f8f8;
      }
    </style>
  </defs>
  <path class="st0" d="M866.33,664.67c-19.88-5.46-32.83-22.24-32.94-42.39-.06-9.66-.05-19.33,0-29,.13-24.79,18.74-43.27,43.43-43.21,20.66.05,41.33.06,61.99.09,1.98,0,3.96,0,6.36,0,.15-1.71.37-3.12.37-4.54.08-14,.24-28,.1-41.99-.04-3.72,1.03-5.11,4.8-4.83,3.64.27,7.35.28,10.99-.05,4.33-.4,5.45,1.46,5.42,5.5-.16,20.5-.09,40.99-.11,61.49-.03,31.16-.16,62.32,0,93.49.02,4.68-1.07,6.27-6.06,6.23-28.33-.24-56.66-.1-84.99-.14-2.99,0-5.98-.34-9.37-.65M945.68,610.1v-37c-1.6-.1-2.74-.23-3.88-.23-21.98,0-43.96-.04-65.94.02-12.01.03-21.05,9.18-21.11,21.25-.04,8.49,0,16.98.03,25.48.07,14.16,8.51,22.8,22.56,22.85,20.98.07,41.96,0,62.94-.03,1.74,0,3.48-.21,5.4-.34,0-10.75,0-20.9,0-31.98Z"/>
  <path class="st6" d="M793.02,642.41c1.97,0,3.43,0,5.44,0,0-6.39,0-12.33,0-18.27,0-9.83.11-19.66,0-29.48-.16-14.4-7.59-21.73-21.97-21.76-15.49-.03-30.98.02-46.47,0-5.31,0-6.71-1.45-6.87-6.8q-.49-16.02,15.52-15.94c12.83.04,25.69.63,38.47-.14,22.94-1.38,42.01,17,42.29,41.49.27,23.15-.05,46.3.07,69.45.02,3.68-1.39,4.42-4.72,4.41-28.32-.1-56.63.03-84.95-.08-16.37-.06-30.9-13.32-32.87-29.96-1.57-13.21.97-25.19,11.33-34.57,5.67-5.14,12.36-7.86,19.95-7.92,15.82-.13,31.65.04,47.47-.1,4.34-.04,6.07,2.07,6.19,5.99.11,3.49-.05,7,.05,10.49.13,4.51-2.04,6.19-6.43,6.15-14.32-.14-28.65-.18-42.97-.07-9.9.08-15.4,5.76-14.71,14.78.55,7.25,5.75,12.14,13.73,12.37,7.82.22,15.65.04,23.48.03,12.49-.02,24.98-.03,37.98-.05Z"/>
  <path class="st2" d="M1235.15,659.22c5-9.17,10.18-17.88,14.38-27.04,15.07-32.83,29.82-65.81,44.69-98.74,3.01-6.68,5.98-13.37,8.99-20.05,4.14-9.19,11.24-14.67,21.3-14.81,10.42-.15,18.12,5.03,22.37,14.71,14.05,31.96,28.02,63.95,42.06,95.92,6.02,13.7,11.94,27.44,18.28,40.99,2.21,4.73,5.55,8.94,8.54,13.64-.19.21-.61,1.09-1.03,1.09-7.59-.08-15.31.46-22.72-.8-2.96-.5-6.24-4.57-7.68-7.77-10.51-23.34-20.54-46.9-30.81-70.35-8.74-19.95-17.6-39.86-26.42-59.78-.39-.88-.99-1.67-1.92-3.22-1,1.32-1.92,2.16-2.39,3.2-16.39,36.44-32.74,72.89-49.08,109.35-3.2,7.14-6.19,14.38-9.53,21.45-2.56,5.41-7.1,8.29-13.11,8.47-4.66.14-9.33.11-13.98-.11-1.65-.08-3.26-.97-4.89-1.49.89-1.47,1.78-2.94,2.94-4.66Z"/>
  <path class="st6" d="M1220.3,572.12c-21.05,18.73-41.86,37.17-62.68,55.6-5.17,4.58-10.36,9.14-16.71,14.75,6.55,0,11.63,0,16.71,0,23.65-.05,47.31-.1,70.96-.16,6.44-.02,7.44,1.38,4.56,7.33-4.79,9.91-11.29,16.17-23.84,15.9-32.47-.71-64.96-.23-97.45-.23-8.51,0-8.85-.74-9.36-8.99-.42-6.97,2-11.74,7.3-16.33,24.32-21.02,48.29-42.43,72.38-63.71.95-.84,1.88-1.69,3.77-3.4h-5.85c-23.82,0-47.64-.1-71.46.09-4.52.04-6.46-1.15-6.02-5.9.37-3.97.34-8,.08-11.98-.24-3.83,1.44-4.95,4.98-4.92,11.33.09,22.66-.03,33.98-.03,23.65,0,47.31.01,70.96.01,7.26,0,9.59,2.12,9.42,9.53-.09,4.06-.98,8.1-1.75,12.44Z"/>
  <path class="st3" d="M482.51,516.51c-2.77-4.14-5.61-7.86-7.7-11.97-2.27-4.46-1.43-5.55,3.6-5.57,17.99-.07,35.99-.05,53.98-.06,29.49-.01,58.98-.02,88.48-.04,7.19,0,7.52.7,4.38,7.34-5.2,10.97-12.9,17.06-25.89,16.2-12.09-.8-24.28-.17-37.05-.17v142.99c-6.72,0-12.83.07-18.95-.03-3.56-.05-2.53-2.9-2.53-4.83-.04-20.99,0-41.99.01-62.98,0-21.66,0-43.32,0-64.98,0-3.15,0-6.29,0-10.16-3.43,0-6.52,0-9.62,0-11.16,0-22.33-.12-33.49.09-5.84.11-10.82-1.48-15.22-5.84Z"/>
  <path class="st6" d="M976.96,605c-.02-16.99.06-33.47-.13-49.96-.04-3.73,1.18-5.11,4.86-4.91,3.82.21,7.68.28,11.48-.03,4.03-.33,5.1,1.22,5.07,5.13-.18,20.98-.12,41.96-.11,62.95,0,15.84,8.52,24.32,24.33,24.27,8.33-.02,16.68-.5,24.97.02,15.25.94,22.93-12.18,22.86-22.81-.13-21.15.1-42.3-.18-63.45-.06-4.94,1.44-6.73,6.21-5.97,1.14.18,2.33.04,3.49.03q11.45-.06,11.42,11.65c-.02,19.98.17,39.97-.06,59.95-.24,21-13.73,38.33-33.31,42.53-5.44,1.17-11.25.75-16.89.85-7.16.13-14.35-.4-21.48.13-18.78,1.4-40.69-14.07-42.48-40.9-.42-6.3-.07-12.65-.07-19.48Z"/>
  <path class="st6" d="M631.72,552.74c4.76-.95,9.14-2.39,13.54-2.45,19.48-.26,38.97-.14,58.46-.12,5.81,0,6.39.72,3.75,5.94-2.08,4.11-4.52,8.14-7.4,11.73-2.92,3.64-7.1,5.17-11.95,5.11-12.99-.14-25.98-.07-38.97-.05-14.35.02-23.16,8.97-23.16,23.48,0,21.15-.13,42.31.11,63.46.05,4.5-1.28,5.91-5.64,5.51-3.8-.35-7.66-.17-11.48-.02-2.89.12-4.21-.73-4.2-3.92.1-23.32-.58-46.66.25-69.95.64-17.83,9.46-31.23,26.68-38.72Z"/>
  <path class="st4" d="M1436.02,665.4c-13.28.14-11.36.91-11.39-10.83-.08-32.64-.08-65.27-.13-97.91,0-6.25.09-6.38,6.44-6.37,3.83,0,7.69.26,11.48-.11,4.64-.45,5.15,1.99,5.14,5.72-.08,31.97-.05,63.94-.05,95.91,0,.83-.01,1.67-.02,2.5q-.09,10.97-11.48,11.09Z"/>
  <path class="st5" d="M1197.03,716.96c1.24,6.42,3.2,8.18,8.97,8.23,7.33.06,14.66-.03,22,.05,9.28.11,15.97,7.02,16.31,16.67.36,10.39-5.8,18.48-15.24,18.77-13.3.41-26.63.1-39.98.1,1.07-6.66,3.41-8.7,9.77-8.68,9,.03,18,.1,26.99.07,6.59-.02,10.03-3.14,10.21-9.02.17-5.92-2.96-8.86-9.99-8.99-6.83-.13-13.66.05-20.49,0-10.39-.08-16.96-7.34-16.95-18.61.01-10.12,6.65-16.64,17.08-16.67,12.45-.03,24.9,0,37.41,0-.73,6-3.22,8.43-8.62,8.48-9.16.09-18.33,0-27.49.05-6.64.04-9.07,2.32-9.99,9.55Z"/>
  <path class="st1" d="M1334.9,726.07c3.58-6.27,8.8-8.74,15.54-8.64,7.78.12,15.57.03,23.84.03v-18.09h8.02v61.28c-12.22,0-24.18.42-36.08-.17-6.33-.31-11.37-4.77-12.05-10.95-.84-7.59.3-15.4.73-23.46M1351.81,725.94c-8.07.31-10.28,2.58-10.32,10.61-.01,2.82-.13,5.66.08,8.46.29,3.94,2.43,6.85,6.45,6.99,8.74.3,17.49.09,26.31.09v-26.17c-7.38,0-14.49,0-22.53,0Z"/>
  <path class="st5" d="M1405.62,724.29c4.15-5.25,9.55-7.4,16.22-6.89,3.47.27,6.98-.04,10.48.02,9.45.15,15.99,6.69,16.08,16.03.04,3.99.11,7.99.02,11.98-.14,6.5-3.84,12.75-9.94,14.09-9.55,2.1-19.36,3.15-29.23-1.78-7.43-7.48-8.87-22.62-3.64-33.46M1411.05,733.16c-.01,3.83-.15,7.67,0,11.5.17,4.49,2.6,7.19,7.14,7.41,4.82.23,9.67.27,14.49.1,4.62-.16,7.45-2.98,7.66-7.54.17-3.66.17-7.34-.09-10.99-.34-4.75-3.38-7.54-8.16-7.67-4-.11-8,.08-12,.01-4.57-.08-7.68,1.78-9.03,7.18Z"/>
  <path class="st5" d="M1318.89,723.14c0-1.9,0-3.38,0-5.25h7.88c0,10.13.75,20.27-.24,30.24-.77,7.8-7.74,12.52-15.69,12.69-4,.08-7.99.06-11.99.03-9.49-.05-16.25-6.08-16.67-15.59-.39-8.96-.08-17.96-.08-27.31h8.25c0,6.17,0,12.41,0,18.65,0,2.16,0,4.33.02,6.49.07,6.4,2.34,8.82,8.6,9.01,3.49.11,6.99.12,10.49.08,6.09-.07,9.23-3.04,9.37-9.15.15-6.49.05-12.99.06-19.91Z"/>
  <path class="st5" d="M1263.81,717.41c2.67,0,4.84.1,6.99-.01,2.98-.15,5.07.08,5,4.12-.07,4-1.89,4.78-5.28,4.55-2.81-.19-5.64-.04-9.09-.04,0,7.17-.36,14.11.15,20.99.26,3.5,3.31,4.99,6.94,5.13,6.21.22,7.42,1.74,6.85,7.91-13.13,3.67-22.24-2.95-22.36-16.28-.05-5.64,0-11.28,0-17.26-6.26-.14-4.92-4.35-4.59-8.3,1.39-.42,2.77-.84,4.15-1.25.13-.28.38-.56.38-.84.06-2.99.24-6,.06-8.98-.18-2.99.81-4.11,3.94-4.09,3.19.02,4.63.93,4.33,4.3-.22,2.48-.23,5.01.05,7.47.11.93,1.29,1.73,2.49,2.6Z"/>
  <path class="st2" d="M1448.92,514.92c-.95,9.07-6.2,13.86-14,13.2-7.17-.61-12.05-6.77-11.7-14.74.32-7.34,5.73-12.8,12.64-12.79,7.67.02,12.74,5.41,13.06,14.32Z"/>
  <path class="st5" d="M1394,761.05c-1.47-.14-2.94-.28-4.77-.46v-43.4c2.6.39,5.08.76,7.68,1.93.1,13.07.06,25.35.13,37.63.01,2.32.16,4.39-3.03,4.3Z"/>
  <path class="st1" d="M1395.55,701.63c.52,2.51,1.26,4.92.78,7.05-.19.86-3.33,1.93-4.6,1.47-1.48-.54-3.21-2.6-3.32-4.1-.11-1.54,1.31-3.59,2.65-4.68.84-.68,2.78-.01,4.49.27Z"/>
</svg>